<?xml version="1.0" encoding="UTF-8" standalone="no"?>
<!DOCTYPE svg PUBLIC "-//W3C//DTD SVG 1.1//EN"
 "http://www.w3.org/Graphics/SVG/1.1/DTD/svg11.dtd">
<!-- Generated by graphviz version 2.30.1 (20201013.1554)
 -->
<!-- Title: snakemake_dag Pages: 1 -->
<svg width="467pt" height="908pt"
 viewBox="0.00 0.00 467.00 908.00" xmlns="http://www.w3.org/2000/svg" xmlns:xlink="http://www.w3.org/1999/xlink">
<g id="graph0" class="graph" transform="scale(1 1) rotate(0) translate(4 904)">
<title>snakemake_dag</title>
<polygon fill="white" stroke="white" points="-4,5 -4,-904 464,-904 464,5 -4,5"/>
<!-- 0 -->
<g id="node1" class="node"><title>0</title>
<path fill="none" stroke="#56d8a2" stroke-width="2" d="M291,-36C291,-36 261,-36 261,-36 255,-36 249,-30 249,-24 249,-24 249,-12 249,-12 249,-6 255,-0 261,-0 261,-0 291,-0 291,-0 297,-0 303,-6 303,-12 303,-12 303,-24 303,-24 303,-30 297,-36 291,-36"/>
<text text-anchor="middle" x="276" y="-15.5" font-family="sans" font-size="10.00">all</text>
</g>
<!-- 1 -->
<g id="node2" class="node"><title>1</title>
<path fill="none" stroke="#70d856" stroke-width="2" d="M293,-396C293,-396 209,-396 209,-396 203,-396 197,-390 197,-384 197,-384 197,-372 197,-372 197,-366 203,-360 209,-360 209,-360 293,-360 293,-360 299,-360 305,-366 305,-372 305,-372 305,-384 305,-384 305,-390 299,-396 293,-396"/>
<text text-anchor="middle" x="251" y="-375.5" font-family="sans" font-size="10.00">merge_summaries</text>
</g>
<!-- 1&#45;&gt;0 -->
<g id="edge6" class="edge"><title>1&#45;&gt;0</title>
<path fill="none" stroke="grey" stroke-width="2" d="M260.117,-359.606C273.005,-333.357 295,-281.715 295,-235 295,-235 295,-235 295,-161 295,-120.86 287.449,-74.897 281.868,-46.4045"/>
<polygon fill="grey" stroke="grey" points="285.255,-45.4976 279.845,-36.3884 278.394,-46.8834 285.255,-45.4976"/>
</g>
<!-- 2 -->
<g id="node3" class="node"><title>2</title>
<path fill="none" stroke="#d6d856" stroke-width="2" d="M275,-540C275,-540 183,-540 183,-540 177,-540 171,-534 171,-528 171,-528 171,-516 171,-516 171,-510 177,-504 183,-504 183,-504 275,-504 275,-504 281,-504 287,-510 287,-516 287,-516 287,-528 287,-528 287,-534 281,-540 275,-540"/>
<text text-anchor="middle" x="229" y="-519.5" font-family="sans" font-size="10.00">summarize_kraken2</text>
</g>
<!-- 2&#45;&gt;1 -->
<g id="edge7" class="edge"><title>2&#45;&gt;1</title>
<path fill="none" stroke="grey" stroke-width="2" d="M231.654,-503.871C235.403,-479.67 242.291,-435.211 246.756,-406.393"/>
<polygon fill="grey" stroke="grey" points="250.264,-406.607 248.337,-396.189 243.347,-405.535 250.264,-406.607"/>
</g>
<!-- 14 -->
<g id="node15" class="node"><title>14</title>
<path fill="none" stroke="#56c1d8" stroke-width="2" d="M165,-468C165,-468 121,-468 121,-468 115,-468 109,-462 109,-456 109,-456 109,-444 109,-444 109,-438 115,-432 121,-432 121,-432 165,-432 165,-432 171,-432 177,-438 177,-444 177,-444 177,-456 177,-456 177,-462 171,-468 165,-468"/>
<text text-anchor="middle" x="143" y="-447.5" font-family="sans" font-size="10.00">split_fastq</text>
</g>
<!-- 2&#45;&gt;14 -->
<g id="edge19" class="edge"><title>2&#45;&gt;14</title>
<path fill="none" stroke="grey" stroke-width="2" d="M207.742,-503.697C196.911,-494.881 183.582,-484.032 171.84,-474.474"/>
<polygon fill="grey" stroke="grey" points="173.979,-471.703 164.014,-468.104 169.56,-477.132 173.979,-471.703"/>
</g>
<!-- 3 -->
<g id="node4" class="node"><title>3</title>
<path fill="none" stroke="#d8bc56" stroke-width="2" d="M239,-612C239,-612 207,-612 207,-612 201,-612 195,-606 195,-600 195,-600 195,-588 195,-588 195,-582 201,-576 207,-576 207,-576 239,-576 239,-576 245,-576 251,-582 251,-588 251,-588 251,-600 251,-600 251,-606 245,-612 239,-612"/>
<text text-anchor="middle" x="223" y="-591.5" font-family="sans" font-size="10.00">kraken2</text>
</g>
<!-- 3&#45;&gt;2 -->
<g id="edge8" class="edge"><title>3&#45;&gt;2</title>
<path fill="none" stroke="grey" stroke-width="2" d="M224.483,-575.697C225.144,-567.983 225.939,-558.712 226.676,-550.112"/>
<polygon fill="grey" stroke="grey" points="230.167,-550.367 227.534,-540.104 223.193,-549.769 230.167,-550.367"/>
</g>
<!-- 4 -->
<g id="node5" class="node"><title>4</title>
<path fill="none" stroke="#d8a456" stroke-width="2" d="M259,-684C259,-684 187,-684 187,-684 181,-684 175,-678 175,-672 175,-672 175,-660 175,-660 175,-654 181,-648 187,-648 187,-648 259,-648 259,-648 265,-648 271,-654 271,-660 271,-660 271,-672 271,-672 271,-678 265,-684 259,-684"/>
<text text-anchor="middle" x="223" y="-663.5" font-family="sans" font-size="10.00">undesirable_seq</text>
</g>
<!-- 4&#45;&gt;3 -->
<g id="edge9" class="edge"><title>4&#45;&gt;3</title>
<path fill="none" stroke="grey" stroke-width="2" d="M223,-647.697C223,-639.983 223,-630.712 223,-622.112"/>
<polygon fill="grey" stroke="grey" points="226.5,-622.104 223,-612.104 219.5,-622.104 226.5,-622.104"/>
</g>
<!-- 5 -->
<g id="node6" class="node"><title>5</title>
<path fill="none" stroke="#d86e56" stroke-width="2" d="M252.25,-756C252.25,-756 193.75,-756 193.75,-756 187.75,-756 181.75,-750 181.75,-744 181.75,-744 181.75,-732 181.75,-732 181.75,-726 187.75,-720 193.75,-720 193.75,-720 252.25,-720 252.25,-720 258.25,-720 264.25,-726 264.25,-732 264.25,-732 264.25,-744 264.25,-744 264.25,-750 258.25,-756 252.25,-756"/>
<text text-anchor="middle" x="223" y="-735.5" font-family="sans" font-size="10.00">extract_reads</text>
</g>
<!-- 5&#45;&gt;4 -->
<g id="edge10" class="edge"><title>5&#45;&gt;4</title>
<path fill="none" stroke="grey" stroke-width="2" d="M223,-719.697C223,-711.983 223,-702.712 223,-694.112"/>
<polygon fill="grey" stroke="grey" points="226.5,-694.104 223,-684.104 219.5,-694.104 226.5,-694.104"/>
</g>
<!-- 10 -->
<g id="node11" class="node"><title>10</title>
<path fill="none" stroke="#59d856" stroke-width="2" d="M331,-612C331,-612 281,-612 281,-612 275,-612 269,-606 269,-600 269,-600 269,-588 269,-588 269,-582 275,-576 281,-576 281,-576 331,-576 331,-576 337,-576 343,-582 343,-588 343,-588 343,-600 343,-600 343,-606 337,-612 331,-612"/>
<text text-anchor="middle" x="306" y="-591.5" font-family="sans" font-size="10.00">kde_filtered</text>
</g>
<!-- 5&#45;&gt;10 -->
<g id="edge15" class="edge"><title>5&#45;&gt;10</title>
<path fill="none" stroke="grey" stroke-width="2" d="M246.671,-719.936C258.209,-710.515 271.412,-697.914 280,-684 291.662,-665.106 298.305,-640.736 301.952,-622.275"/>
<polygon fill="grey" stroke="grey" points="305.443,-622.636 303.768,-612.175 298.553,-621.397 305.443,-622.636"/>
</g>
<!-- 5&#45;&gt;14 -->
<g id="edge20" class="edge"><title>5&#45;&gt;14</title>
<path fill="none" stroke="grey" stroke-width="2" d="M197.339,-719.856C185.743,-710.664 173.08,-698.287 166,-684 132.403,-616.201 135.505,-523.803 139.699,-478.43"/>
<polygon fill="grey" stroke="grey" points="143.209,-478.508 140.739,-468.206 136.245,-477.8 143.209,-478.508"/>
</g>
<!-- 6 -->
<g id="node7" class="node"><title>6</title>
<path fill="none" stroke="#d88d56" stroke-width="2" d="M263,-828C263,-828 183,-828 183,-828 177,-828 171,-822 171,-816 171,-816 171,-804 171,-804 171,-798 177,-792 183,-792 183,-792 263,-792 263,-792 269,-792 275,-798 275,-804 275,-804 275,-816 275,-816 275,-822 269,-828 263,-828"/>
<text text-anchor="middle" x="223" y="-807.5" font-family="sans" font-size="10.00">compute_read_qv</text>
</g>
<!-- 6&#45;&gt;5 -->
<g id="edge11" class="edge"><title>6&#45;&gt;5</title>
<path fill="none" stroke="grey" stroke-width="2" d="M223,-791.697C223,-783.983 223,-774.712 223,-766.112"/>
<polygon fill="grey" stroke="grey" points="226.5,-766.104 223,-756.104 219.5,-766.104 226.5,-766.104"/>
</g>
<!-- 9 -->
<g id="node10" class="node"><title>9</title>
<path fill="none" stroke="#bed856" stroke-width="2" d="M94.25,-684C94.25,-684 11.75,-684 11.75,-684 5.75,-684 -0.25,-678 -0.25,-672 -0.25,-672 -0.25,-660 -0.25,-660 -0.25,-654 5.75,-648 11.75,-648 11.75,-648 94.25,-648 94.25,-648 100.25,-648 106.25,-654 106.25,-660 106.25,-660 106.25,-672 106.25,-672 106.25,-678 100.25,-684 94.25,-684"/>
<text text-anchor="middle" x="53" y="-663.5" font-family="sans" font-size="10.00">generate_kde_plot</text>
</g>
<!-- 6&#45;&gt;9 -->
<g id="edge14" class="edge"><title>6&#45;&gt;9</title>
<path fill="none" stroke="grey" stroke-width="2" d="M202.494,-791.871C172.244,-766.604 115.558,-719.254 81.3479,-690.679"/>
<polygon fill="grey" stroke="grey" points="83.4973,-687.914 73.5787,-684.189 79.0098,-693.286 83.4973,-687.914"/>
</g>
<!-- 7 -->
<g id="node8" class="node"><title>7</title>
<path fill="none" stroke="#88d856" stroke-width="2" d="M247,-900C247,-900 211,-900 211,-900 205,-900 199,-894 199,-888 199,-888 199,-876 199,-876 199,-870 205,-864 211,-864 211,-864 247,-864 247,-864 253,-864 259,-870 259,-876 259,-876 259,-888 259,-888 259,-894 253,-900 247,-900"/>
<text text-anchor="middle" x="229" y="-879.5" font-family="sans" font-size="10.00">buildmer</text>
</g>
<!-- 7&#45;&gt;6 -->
<g id="edge12" class="edge"><title>7&#45;&gt;6</title>
<path fill="none" stroke="grey" stroke-width="2" d="M227.517,-863.697C226.856,-855.983 226.061,-846.712 225.324,-838.112"/>
<polygon fill="grey" stroke="grey" points="228.807,-837.769 224.466,-828.104 221.833,-838.367 228.807,-837.769"/>
</g>
<!-- 8 -->
<g id="node9" class="node"><title>8</title>
<path fill="none" stroke="#56d8d8" stroke-width="2" d="M394.25,-756C394.25,-756 311.75,-756 311.75,-756 305.75,-756 299.75,-750 299.75,-744 299.75,-744 299.75,-732 299.75,-732 299.75,-726 305.75,-720 311.75,-720 311.75,-720 394.25,-720 394.25,-720 400.25,-720 406.25,-726 406.25,-732 406.25,-732 406.25,-744 406.25,-744 406.25,-750 400.25,-756 394.25,-756"/>
<text text-anchor="middle" x="353" y="-735.5" font-family="sans" font-size="10.00">compute_kmer_qv</text>
</g>
<!-- 7&#45;&gt;8 -->
<g id="edge13" class="edge"><title>7&#45;&gt;8</title>
<path fill="none" stroke="grey" stroke-width="2" d="M247.995,-863.972C258.909,-853.879 272.659,-840.629 284,-828 302.298,-807.623 321.231,-782.899 334.625,-764.686"/>
<polygon fill="grey" stroke="grey" points="337.664,-766.457 340.728,-756.315 332.008,-762.333 337.664,-766.457"/>
</g>
<!-- 8&#45;&gt;0 -->
<g id="edge5" class="edge"><title>8&#45;&gt;0</title>
<path fill="none" stroke="grey" stroke-width="2" d="M356.643,-719.601C361.902,-692.918 371,-640.227 371,-595 371,-595 371,-595 371,-161 371,-113.012 333.056,-68.9633 305.129,-43.0419"/>
<polygon fill="grey" stroke="grey" points="307.33,-40.3144 297.557,-36.2232 302.646,-45.516 307.33,-40.3144"/>
</g>
<!-- 9&#45;&gt;0 -->
<g id="edge4" class="edge"><title>9&#45;&gt;0</title>
<path fill="none" stroke="grey" stroke-width="2" d="M52.2097,-647.955C51.044,-621.302 49,-568.132 49,-523 49,-523 49,-523 49,-161 49,-120.553 39.9654,-101.155 68,-72 91.3673,-47.6989 185.609,-31.2732 238.866,-23.7299"/>
<polygon fill="grey" stroke="grey" points="239.51,-27.1743 248.938,-22.34 238.553,-20.24 239.51,-27.1743"/>
</g>
<!-- 10&#45;&gt;0 -->
<g id="edge1" class="edge"><title>10&#45;&gt;0</title>
<path fill="none" stroke="grey" stroke-width="2" d="M311.464,-575.713C319.353,-549.175 333,-496.672 333,-451 333,-451 333,-451 333,-161 333,-117.801 310,-72.1859 293.22,-44.6553"/>
<polygon fill="grey" stroke="grey" points="296.093,-42.6485 287.81,-36.0417 290.165,-46.3716 296.093,-42.6485"/>
</g>
<!-- 11 -->
<g id="node12" class="node"><title>11</title>
<path fill="none" stroke="#56d8c1" stroke-width="2" d="M188.25,-252C188.25,-252 117.75,-252 117.75,-252 111.75,-252 105.75,-246 105.75,-240 105.75,-240 105.75,-228 105.75,-228 105.75,-222 111.75,-216 117.75,-216 117.75,-216 188.25,-216 188.25,-216 194.25,-216 200.25,-222 200.25,-228 200.25,-228 200.25,-240 200.25,-240 200.25,-246 194.25,-252 188.25,-252"/>
<text text-anchor="middle" x="153" y="-231.5" font-family="sans" font-size="10.00">make_new_fofn</text>
</g>
<!-- 11&#45;&gt;0 -->
<g id="edge3" class="edge"><title>11&#45;&gt;0</title>
<path fill="none" stroke="grey" stroke-width="2" d="M180.318,-215.858C193.236,-206.586 207.985,-194.14 218,-180 247.44,-138.434 263.461,-80.3321 270.833,-46.4856"/>
<polygon fill="grey" stroke="grey" points="274.321,-46.9034 272.928,-36.4005 267.467,-45.4793 274.321,-46.9034"/>
</g>
<!-- 16 -->
<g id="node17" class="node"><title>16</title>
<path fill="none" stroke="#5673d8" stroke-width="2" d="M197.25,-180C197.25,-180 108.75,-180 108.75,-180 102.75,-180 96.75,-174 96.75,-168 96.75,-168 96.75,-156 96.75,-156 96.75,-150 102.75,-144 108.75,-144 108.75,-144 197.25,-144 197.25,-144 203.25,-144 209.25,-150 209.25,-156 209.25,-156 209.25,-168 209.25,-168 209.25,-174 203.25,-180 197.25,-180"/>
<text text-anchor="middle" x="153" y="-159.5" font-family="sans" font-size="10.00">make_md5sum_tab</text>
</g>
<!-- 11&#45;&gt;16 -->
<g id="edge22" class="edge"><title>11&#45;&gt;16</title>
<path fill="none" stroke="grey" stroke-width="2" d="M153,-215.697C153,-207.983 153,-198.712 153,-190.112"/>
<polygon fill="grey" stroke="grey" points="156.5,-190.104 153,-180.104 149.5,-190.104 156.5,-190.104"/>
</g>
<!-- 12 -->
<g id="node13" class="node"><title>12</title>
<path fill="none" stroke="#568ad8" stroke-width="2" d="M173,-324C173,-324 119,-324 119,-324 113,-324 107,-318 107,-312 107,-312 107,-300 107,-300 107,-294 113,-288 119,-288 119,-288 173,-288 173,-288 179,-288 185,-294 185,-300 185,-300 185,-312 185,-312 185,-318 179,-324 173,-324"/>
<text text-anchor="middle" x="146" y="-303.5" font-family="sans" font-size="10.00">gather_fastq</text>
</g>
<!-- 12&#45;&gt;11 -->
<g id="edge16" class="edge"><title>12&#45;&gt;11</title>
<path fill="none" stroke="grey" stroke-width="2" d="M147.73,-287.697C148.502,-279.983 149.429,-270.712 150.289,-262.112"/>
<polygon fill="grey" stroke="grey" points="153.777,-262.403 151.29,-252.104 146.812,-261.706 153.777,-262.403"/>
</g>
<!-- 13 -->
<g id="node14" class="node"><title>13</title>
<path fill="none" stroke="#a7d856" stroke-width="2" d="M166.25,-396C166.25,-396 111.75,-396 111.75,-396 105.75,-396 99.75,-390 99.75,-384 99.75,-384 99.75,-372 99.75,-372 99.75,-366 105.75,-360 111.75,-360 111.75,-360 166.25,-360 166.25,-360 172.25,-360 178.25,-366 178.25,-372 178.25,-372 178.25,-384 178.25,-384 178.25,-390 172.25,-396 166.25,-396"/>
<text text-anchor="middle" x="139" y="-375.5" font-family="sans" font-size="10.00">subset_fastq</text>
</g>
<!-- 13&#45;&gt;12 -->
<g id="edge17" class="edge"><title>13&#45;&gt;12</title>
<path fill="none" stroke="grey" stroke-width="2" d="M140.73,-359.697C141.502,-351.983 142.429,-342.712 143.289,-334.112"/>
<polygon fill="grey" stroke="grey" points="146.777,-334.403 144.29,-324.104 139.812,-333.706 146.777,-334.403"/>
</g>
<!-- 14&#45;&gt;13 -->
<g id="edge18" class="edge"><title>14&#45;&gt;13</title>
<path fill="none" stroke="grey" stroke-width="2" d="M142.011,-431.697C141.57,-423.983 141.041,-414.712 140.549,-406.112"/>
<polygon fill="grey" stroke="grey" points="144.042,-405.888 139.977,-396.104 137.054,-406.288 144.042,-405.888"/>
</g>
<!-- 15 -->
<g id="node16" class="node"><title>15</title>
<path fill="none" stroke="#56d873" stroke-width="2" d="M216.25,-108C216.25,-108 89.75,-108 89.75,-108 83.75,-108 77.75,-102 77.75,-96 77.75,-96 77.75,-84 77.75,-84 77.75,-78 83.75,-72 89.75,-72 89.75,-72 216.25,-72 216.25,-72 222.25,-72 228.25,-78 228.25,-84 228.25,-84 228.25,-96 228.25,-96 228.25,-102 222.25,-108 216.25,-108"/>
<text text-anchor="middle" x="153" y="-87.5" font-family="sans" font-size="10.00">make_overwrite_target_list</text>
</g>
<!-- 15&#45;&gt;0 -->
<g id="edge2" class="edge"><title>15&#45;&gt;0</title>
<path fill="none" stroke="grey" stroke-width="2" d="M183.089,-71.8761C200.168,-62.1563 221.665,-49.9222 239.679,-39.6706"/>
<polygon fill="grey" stroke="grey" points="241.779,-42.5023 248.739,-34.5142 238.317,-36.4185 241.779,-42.5023"/>
</g>
<!-- 16&#45;&gt;15 -->
<g id="edge21" class="edge"><title>16&#45;&gt;15</title>
<path fill="none" stroke="grey" stroke-width="2" d="M153,-143.697C153,-135.983 153,-126.712 153,-118.112"/>
<polygon fill="grey" stroke="grey" points="156.5,-118.104 153,-108.104 149.5,-118.104 156.5,-118.104"/>
</g>
<!-- 17 -->
<g id="node18" class="node"><title>17</title>
<path fill="none" stroke="#56a2d8" stroke-width="2" d="M398.25,-828C398.25,-828 359.75,-828 359.75,-828 353.75,-828 347.75,-822 347.75,-816 347.75,-816 347.75,-804 347.75,-804 347.75,-798 353.75,-792 359.75,-792 359.75,-792 398.25,-792 398.25,-792 404.25,-792 410.25,-798 410.25,-804 410.25,-804 410.25,-816 410.25,-816 410.25,-822 404.25,-828 398.25,-828"/>
<text text-anchor="middle" x="379" y="-807.5" font-family="sans" font-size="10.00">overwrite</text>
</g>
<!-- 18 -->
<g id="node19" class="node"><title>18</title>
<path fill="none" stroke="#56d88a" stroke-width="2" d="M447,-900C447,-900 311,-900 311,-900 305,-900 299,-894 299,-888 299,-888 299,-876 299,-876 299,-870 305,-864 311,-864 311,-864 447,-864 447,-864 453,-864 459,-870 459,-876 459,-876 459,-888 459,-888 459,-894 453,-900 447,-900"/>
<text text-anchor="middle" x="379" y="-879.5" font-family="sans" font-size="10.00">overwrite_sample_fastq_files</text>
</g>
<!-- 18&#45;&gt;17 -->
<g id="edge23" class="edge"><title>18&#45;&gt;17</title>
<path fill="none" stroke="grey" stroke-width="2" d="M379,-863.697C379,-855.983 379,-846.712 379,-838.112"/>
<polygon fill="grey" stroke="grey" points="382.5,-838.104 379,-828.104 375.5,-838.104 382.5,-838.104"/>
</g>
</g>
</svg>
